<svg class="main-svg" xmlns="http://www.w3.org/2000/svg" xmlns:xlink="http://www.w3.org/1999/xlink" width="1600" height="1600" style="" viewBox="0 0 800 800"><rect x="0" y="0" width="800" height="800" style="fill: rgb(255, 255, 255); fill-opacity: 1;"/><defs id="defs-93f916"><g class="clips"/><g class="gradients"/><g class="patterns"/></defs><g class="bglayer"/><g class="layer-below"><g class="imagelayer"/><g class="shapelayer"/></g><g class="cartesianlayer"/><g class="polarlayer"/><g class="smithlayer"/><g class="ternarylayer"/><g class="geolayer"/><g class="funnelarealayer"/><g class="pielayer"/><g class="iciclelayer"/><g class="treemaplayer"/><g class="sunburstlayer"><g class="trace sunburst" stroke-linejoin="round" style="opacity: 1;"><g class="slice cursor-pointer"><path class="surface" d="M400,400L600,400A200,200 0,0,0 248.8251397449876,269.05664725967387L400,400A0,0 0,0,1 400,400Z" style="pointer-events: none; stroke-width: 1; fill: rgb(99, 110, 250); fill-opacity: 1; stroke: rgb(255, 255, 255); stroke-opacity: 1;"/><g class="slicetext"><text data-notex="1" class="slicetext" text-anchor="middle" x="0" y="0" style="font-family: 'Arial Unicode MS'; font-size: 12px; fill: rgb(255, 255, 255); fill-opacity: 1; white-space: pre;" transform="translate(436.07413592628535,308.0033582070703)">sell</text></g></g><g class="slice cursor-pointer"><path class="surface" d="M400,400L248.8251397449876,269.05664725967387A200,200 0,0,0 223.0388004997721,493.1919195608747L400,400A0,0 0,0,1 400,400Z" style="pointer-events: none; stroke-width: 1; fill: rgb(239, 85, 59); fill-opacity: 1; stroke: rgb(255, 255, 255); stroke-opacity: 1;"/><g class="slicetext"><text data-notex="1" class="slicetext" text-anchor="middle" x="0" y="0" style="font-family: 'Arial Unicode MS'; font-size: 12px; fill: rgb(68, 68, 68); fill-opacity: 1; white-space: pre;" transform="translate(272.9635366488613,390.13469511357096)">have</text></g></g><g class="slice cursor-pointer"><path class="surface" d="M400,400L223.0388004997721,493.1919195608747A200,200 0,0,0 381.726337728546,599.1634335594484L400,400A0,0 0,0,1 400,400Z" style="pointer-events: none; stroke-width: 1; fill: rgb(0, 204, 150); fill-opacity: 1; stroke: rgb(255, 255, 255); stroke-opacity: 1;"/><g class="slicetext"><text data-notex="1" class="slicetext" text-anchor="middle" x="0" y="0" style="font-family: 'Arial Unicode MS'; font-size: 12px; fill: rgb(68, 68, 68); fill-opacity: 1; white-space: pre;" transform="translate(324.80229403330844,517.3551550539172)">save</text></g></g><g class="slice cursor-pointer"><path class="surface" d="M400,400L381.726337728546,599.1634335594484A200,200 0,0,0 478.43615667324514,583.9776326794379L400,400A0,0 0,0,1 400,400Z" style="pointer-events: none; stroke-width: 1; fill: rgb(171, 99, 250); fill-opacity: 1; stroke: rgb(255, 255, 255); stroke-opacity: 1;"/><g class="slicetext"><text data-notex="1" class="slicetext" text-anchor="middle" x="0" y="0" style="font-family: 'Arial Unicode MS'; font-size: 12px; fill: rgb(68, 68, 68); fill-opacity: 1; white-space: pre;" transform="translate(424.92472169637756,563.4815243726546)">hold</text></g></g><g class="slice cursor-pointer"><path class="surface" d="M400,400L478.43615667324514,583.9776326794379A200,200 0,0,0 551.7222693338272,530.3086834719528L400,400A0,0 0,0,1 400,400Z" style="pointer-events: none; stroke-width: 1; fill: rgb(255, 161, 90); fill-opacity: 1; stroke: rgb(255, 255, 255); stroke-opacity: 1;"/><g class="slicetext"><text data-notex="1" class="slicetext" text-anchor="middle" x="0" y="0" style="font-family: 'Arial Unicode MS'; font-size: 12px; fill: rgb(68, 68, 68); fill-opacity: 1; white-space: pre;" transform="translate(496.2980928797517,536.2471317306959)">plan</text></g></g><g class="slice cursor-pointer"><path class="surface" d="M400,400L551.7222693338272,530.3086834719528A200,200 0,0,0 582.9205847178903,480.8706355018006L400,400A0,0 0,0,1 400,400Z" style="pointer-events: none; stroke-width: 1; fill: rgb(25, 211, 243); fill-opacity: 1; stroke: rgb(255, 255, 255); stroke-opacity: 1;"/><g class="slicetext"><text data-notex="1" class="slicetext" text-anchor="middle" x="0" y="0" style="font-family: 'Arial Unicode MS'; font-size: 12px; fill: rgb(68, 68, 68); fill-opacity: 1; white-space: pre;" transform="translate(547.5704359390595,497.87562268983714)">find</text></g></g><g class="slice cursor-pointer"><path class="surface" d="M400,400L582.9205847178903,480.8706355018006A200,200 0,0,0 592.5506502263861,454.07630809694683L400,400A0,0 0,0,1 400,400Z" style="pointer-events: none; stroke-width: 1; fill: rgb(255, 102, 146); fill-opacity: 1; stroke: rgb(255, 255, 255); stroke-opacity: 1;"/><g class="slicetext"><text data-notex="1" class="slicetext" text-anchor="middle" x="0" y="0" style="font-family: 'Arial Unicode MS'; font-size: 12px; fill: rgb(68, 68, 68); fill-opacity: 1; white-space: pre;" transform="translate(560.7133747437309,462.8089638621385)rotate(19.768786127167687)">produce</text></g></g><g class="slice cursor-pointer"><path class="surface" d="M400,400L592.5506502263861,454.07630809694683A200,200 0,0,0 594.7747350030702,445.4180867549901L400,400A0,0 0,0,1 400,400Z" style="pointer-events: none; stroke-width: 1; fill: rgb(182, 232, 128); fill-opacity: 1; stroke: rgb(255, 255, 255); stroke-opacity: 1;"/><g class="slicetext"><text data-notex="1" class="slicetext" text-anchor="middle" x="0" y="0" style="font-family: 'Arial Unicode MS'; font-size: 12px; fill: rgb(68, 68, 68); fill-opacity: 1; white-space: pre;" transform="translate(585.9620877221264,450.1566397196574)scale(0.48683444045981994)rotate(14.406402845709238)">score</text></g></g><g class="slice cursor-pointer"><path class="surface" d="M400,400L594.7747350030702,445.4180867549901A200,200 0,0,0 596.5064897709284,437.2182680670126L400,400A0,0 0,0,1 400,400Z" style="pointer-events: none; stroke-width: 1; fill: rgb(255, 151, 255); fill-opacity: 1; stroke: rgb(255, 255, 255); stroke-opacity: 1;"/><g class="slicetext"><text data-notex="1" class="slicetext" text-anchor="middle" x="0" y="0" style="font-family: 'Arial Unicode MS'; font-size: 12px; fill: rgb(68, 68, 68); fill-opacity: 1; white-space: pre;" transform="translate(593.1636652084828,440.7950603459352)scale(0.6754683888898796)rotate(-78.07469986660726)">fill</text></g></g><g class="slice cursor-pointer"><path class="surface" d="M400,400L596.5064897709284,437.2182680670126A200,200 0,0,0 597.8931987880347,428.9530978211205L400,400A0,0 0,0,1 400,400Z" style="pointer-events: none; stroke-width: 1; fill: rgb(254, 203, 82); fill-opacity: 1; stroke: rgb(255, 255, 255); stroke-opacity: 1;"/><g class="slicetext"><text data-notex="1" class="slicetext" text-anchor="middle" x="0" y="0" style="font-family: 'Arial Unicode MS'; font-size: 12px; fill: rgb(68, 68, 68); fill-opacity: 1; white-space: pre;" transform="translate(591.4654986047885,434.3672942044199)scale(0.46584782094933064)rotate(9.52423299244117)">take</text></g></g><g class="slice cursor-pointer"><path class="surface" d="M400,400L597.8931987880347,428.9530978211205A200,200 0,0,0 598.8739956112902,421.1927787135276L400,400A0,0 0,0,1 400,400Z" style="pointer-events: none; stroke-width: 1; fill: rgb(198, 202, 253); fill-opacity: 1; stroke: rgb(255, 255, 255); stroke-opacity: 1;"/><g class="slicetext"><text data-notex="1" class="slicetext" text-anchor="middle" x="0" y="0" style="font-family: 'Arial Unicode MS'; font-size: 12px; fill: rgb(68, 68, 68); fill-opacity: 1; white-space: pre;" transform="translate(590.1939016738572,426.06325121771744)scale(0.4230299188924471)rotate(7.203201422854647)">charge</text></g></g><g class="slice cursor-pointer"><path class="surface" d="M400,400L598.8739956112902,421.1927787135276A200,200 0,0,0 599.5505922100566,413.40004285872567L400,400A0,0 0,0,1 400,400Z" style="pointer-events: none; stroke-width: 1; fill: rgb(247, 167, 153); fill-opacity: 1; stroke: rgb(255, 255, 255); stroke-opacity: 1;"/><g class="slicetext"><text data-notex="1" class="slicetext" text-anchor="middle" x="0" y="0" style="font-family: 'Arial Unicode MS'; font-size: 12px; fill: rgb(68, 68, 68); fill-opacity: 1; white-space: pre;" transform="translate(593.6017100838034,418.88288135877247)scale(0.43491201079417346)rotate(4.962205424633282)">offer</text></g></g><g class="slice cursor-pointer"><path class="surface" d="M400,400L599.5505922100566,413.40004285872567A200,200 0,0,0 599.9055652106042,406.1453232485279L400,400A0,0 0,0,1 400,400Z" style="pointer-events: none; stroke-width: 1; fill: rgb(51, 255, 201); fill-opacity: 1; stroke: rgb(255, 255, 255); stroke-opacity: 1;"/><g class="slicetext"><text data-notex="1" class="slicetext" text-anchor="middle" x="0" y="0" style="font-family: 'Arial Unicode MS'; font-size: 12px; fill: rgb(68, 68, 68); fill-opacity: 1; white-space: pre;" transform="translate(593.5792248574842,411.37931624640265)scale(0.40109830181375)rotate(2.801244997776905)">make</text></g></g><g class="slice cursor-pointer"><path class="surface" d="M400,400L599.9055652106042,406.1453232485279A200,200 0,0,0 600,400.00000000000057L400,400A0,0 0,0,1 400,400Z" style="pointer-events: none; stroke-width: 1; fill: rgb(224, 198, 253); fill-opacity: 1; stroke: rgb(255, 255, 255); stroke-opacity: 1;"/><g class="slicetext"><text data-notex="1" class="slicetext" text-anchor="middle" x="0" y="0" style="font-family: 'Arial Unicode MS'; font-size: 12px; fill: rgb(68, 68, 68); fill-opacity: 1; white-space: pre;" transform="translate(591.8251916303509,404.5250519528901)scale(0.33202111579550736)rotate(0.880391285015719)">surround</text></g></g><g class="slice"><path class="surface" d="M600,400L800,400A400,400 0,0,0 599.8386800265913,53.496750426161725L499.91934001329565,226.74837521308086A200,200 0,0,1 600,400Z" style="pointer-events: none; stroke-width: 1; fill: rgb(99, 110, 250); fill-opacity: 1; stroke: rgb(255, 255, 255); stroke-opacity: 1; opacity: 0.7;"/><g class="slicetext"><text data-notex="1" class="slicetext" text-anchor="middle" x="0" y="0" style="font-family: 'Arial Unicode MS'; font-size: 12px; fill: rgb(255, 255, 255); fill-opacity: 1; white-space: pre;" transform="translate(659.7726919885758,254.68951720386718)">total</text></g></g><g class="slice"><path class="surface" d="M499.91934001329565,226.74837521308086L599.8386800265913,53.496750426161725A400,400 0,0,0 287.8188284346669,16.05288808713601L343.90941421733345,208.026444043568A200,200 0,0,1 499.91934001329565,226.74837521308086Z" style="pointer-events: none; stroke-width: 1; fill: rgb(99, 110, 250); fill-opacity: 1; stroke: rgb(255, 255, 255); stroke-opacity: 1; opacity: 0.7;"/><g class="slicetext"><text data-notex="1" class="slicetext" text-anchor="middle" x="0" y="0" style="font-family: 'Arial Unicode MS'; font-size: 12px; fill: rgb(255, 255, 255); fill-opacity: 1; white-space: pre;" transform="translate(435.54964661761875,106.88711560907797)">loaf</text></g></g><g class="slice"><path class="surface" d="M343.90941421733345,208.026444043568L287.8188284346669,16.05288808713601A400,400 0,0,0 131.21473572378596,103.76617055446593L265.60736786189295,251.88308527723296A200,200 0,0,1 343.90941421733345,208.026444043568Z" style="pointer-events: none; stroke-width: 1; fill: rgb(99, 110, 250); fill-opacity: 1; stroke: rgb(255, 255, 255); stroke-opacity: 1; opacity: 0.7;"/><g class="slicetext"><text data-notex="1" class="slicetext" text-anchor="middle" x="0" y="0" style="font-family: 'Arial Unicode MS'; font-size: 12px; fill: rgb(255, 255, 255); fill-opacity: 1; white-space: pre;" transform="translate(240.35301928672737,119.71482784183007)">type</text></g></g><g class="slice"><path class="surface" d="M265.60736786189295,251.88308527723296L131.21473572378596,103.76617055446593A400,400 0,0,0 97.65027948997522,138.11329451934773L248.8251397449876,269.05664725967387A200,200 0,0,1 265.60736786189295,251.88308527723296Z" style="pointer-events: none; stroke-width: 1; fill: rgb(99, 110, 250); fill-opacity: 1; stroke: rgb(255, 255, 255); stroke-opacity: 1; opacity: 0.7;"/><g class="slicetext"><text data-notex="1" class="slicetext" text-anchor="middle" x="0" y="0" style="font-family: 'Arial Unicode MS'; font-size: 12px; fill: rgb(255, 255, 255); fill-opacity: 1; white-space: pre;" transform="translate(130.1175951270198,141.01740405116476)">cookie</text></g></g><g class="slice"><path class="surface" d="M248.8251397449876,269.05664725967387L97.65027948997522,138.11329451934773A400,400 0,0,0 6.678534656223178,327.2110935662298L203.3392673281116,363.6055467831149A200,200 0,0,1 248.8251397449876,269.05664725967387Z" style="pointer-events: none; stroke-width: 1; fill: rgb(239, 85, 59); fill-opacity: 1; stroke: rgb(255, 255, 255); stroke-opacity: 1; opacity: 0.7;"/><g class="slicetext"><text data-notex="1" class="slicetext" text-anchor="middle" x="0" y="0" style="font-family: 'Arial Unicode MS'; font-size: 12px; fill: rgb(68, 68, 68); fill-opacity: 1; white-space: pre;" transform="translate(114.44511920145516,267.3743886339616)">box</text></g></g><g class="slice"><path class="surface" d="M203.3392673281116,363.6055467831149L6.678534656223178,327.2110935662298A400,400 0,0,0 1.0957316099830905,429.58690014559346L200.54786580499155,414.7934500727967A200,200 0,0,1 203.3392673281116,363.6055467831149Z" style="pointer-events: none; stroke-width: 1; fill: rgb(239, 85, 59); fill-opacity: 1; stroke: rgb(255, 255, 255); stroke-opacity: 1; opacity: 0.7;"/><g class="slicetext"><text data-notex="1" class="slicetext" text-anchor="middle" x="0" y="0" style="font-family: 'Arial Unicode MS'; font-size: 12px; fill: rgb(68, 68, 68); fill-opacity: 1; white-space: pre;" transform="translate(45.77103704018094,385.4436794121728)">shelf</text></g></g><g class="slice"><path class="surface" d="M200.54786580499155,414.7934500727967L1.0957316099830905,429.58690014559346A400,400 0,0,0 19.941624975208924,524.722217641907L209.97081248760446,462.3611088209535A200,200 0,0,1 200.54786580499155,414.7934500727967Z" style="pointer-events: none; stroke-width: 1; fill: rgb(239, 85, 59); fill-opacity: 1; stroke: rgb(255, 255, 255); stroke-opacity: 1; opacity: 0.7;"/><g class="slicetext"><text data-notex="1" class="slicetext" text-anchor="middle" x="0" y="0" style="font-family: 'Arial Unicode MS'; font-size: 12px; fill: rgb(68, 68, 68); fill-opacity: 1; white-space: pre;" transform="translate(50.04922490402902,474.0737292322313)">sale</text></g></g><g class="slice"><path class="surface" d="M209.97081248760446,462.3611088209535L19.941624975208924,524.722217641907A400,400 0,0,0 46.07760099954419,586.3838391217494L223.0388004997721,493.1919195608747A200,200 0,0,1 209.97081248760446,462.3611088209535Z" style="pointer-events: none; stroke-width: 1; fill: rgb(239, 85, 59); fill-opacity: 1; stroke: rgb(255, 255, 255); stroke-opacity: 1; opacity: 0.7;"/><g class="slicetext"><text data-notex="1" class="slicetext" text-anchor="middle" x="0" y="0" style="font-family: 'Arial Unicode MS'; font-size: 12px; fill: rgb(68, 68, 68); fill-opacity: 1; white-space: pre;" transform="translate(60.166031943120515,548.7924729066344)">length</text></g></g><g class="slice"><path class="surface" d="M223.0388004997721,493.1919195608747L46.07760099954419,586.3838391217494A400,400 0,0,0 363.45267545709197,798.3268671188969L381.726337728546,599.1634335594484A200,200 0,0,1 223.0388004997721,493.1919195608747Z" style="pointer-events: none; stroke-width: 1; fill: rgb(0, 204, 150); fill-opacity: 1; stroke: rgb(255, 255, 255); stroke-opacity: 1; opacity: 0.7;"/><g class="slicetext"><text data-notex="1" class="slicetext" text-anchor="middle" x="0" y="0" style="font-family: 'Arial Unicode MS'; font-size: 12px; fill: rgb(68, 68, 68); fill-opacity: 1; white-space: pre;" transform="translate(233.3942683174925,654.2345289202044)">money</text></g></g><g class="slice"><path class="surface" d="M381.726337728546,599.1634335594484L363.45267545709197,798.3268671188969A400,400 0,0,0 475.80856354025116,792.7506355105791L437.9042817701256,596.3753177552895A200,200 0,0,1 381.726337728546,599.1634335594484Z" style="pointer-events: none; stroke-width: 1; fill: rgb(171, 99, 250); fill-opacity: 1; stroke: rgb(255, 255, 255); stroke-opacity: 1; opacity: 0.7;"/><g class="slicetext"><text data-notex="1" class="slicetext" text-anchor="middle" x="0" y="0" style="font-family: 'Arial Unicode MS'; font-size: 12px; fill: rgb(68, 68, 68); fill-opacity: 1; white-space: pre;" transform="translate(417.3832363868032,755.006068827087)">gallon</text></g></g><g class="slice"><path class="surface" d="M437.9042817701256,596.3753177552895L475.80856354025116,792.7506355105791A400,400 0,0,0 556.8723133464903,767.9552653588756L478.43615667324514,583.9776326794379A200,200 0,0,1 437.9042817701256,596.3753177552895Z" style="pointer-events: none; stroke-width: 1; fill: rgb(171, 99, 250); fill-opacity: 1; stroke: rgb(255, 255, 255); stroke-opacity: 1; opacity: 0.7;"/><g class="slicetext"><text data-notex="1" class="slicetext" text-anchor="middle" x="0" y="0" style="font-family: 'Arial Unicode MS'; font-size: 12px; fill: rgb(68, 68, 68); fill-opacity: 1; white-space: pre;" transform="translate(505.7111750705993,750.6080090005665)">liter</text></g></g><g class="slice"><path class="surface" d="M478.43615667324514,583.9776326794379L556.8723133464903,767.9552653588756A400,400 0,0,0 703.4445386676545,660.6173669439056L551.7222693338272,530.3086834719528A200,200 0,0,1 478.43615667324514,583.9776326794379Z" style="pointer-events: none; stroke-width: 1; fill: rgb(255, 161, 90); fill-opacity: 1; stroke: rgb(255, 255, 255); stroke-opacity: 1; opacity: 0.7;"/><g class="slicetext"><text data-notex="1" class="slicetext" text-anchor="middle" x="0" y="0" style="font-family: 'Arial Unicode MS'; font-size: 12px; fill: rgb(68, 68, 68); fill-opacity: 1; white-space: pre;" transform="translate(592.5961857595034,667.7442634613918)">trip</text></g></g><g class="slice"><path class="surface" d="M551.7222693338272,530.3086834719528L703.4445386676545,660.6173669439056A400,400 0,0,0 742.0955227878051,607.293640251066L571.0477613939025,503.646820125533A200,200 0,0,1 551.7222693338272,530.3086834719528Z" style="pointer-events: none; stroke-width: 1; fill: rgb(25, 211, 243); fill-opacity: 1; stroke: rgb(255, 255, 255); stroke-opacity: 1; opacity: 0.7;"/><g class="slicetext"><text data-notex="1" class="slicetext" text-anchor="middle" x="0" y="0" style="font-family: 'Arial Unicode MS'; font-size: 12px; fill: rgb(68, 68, 68); fill-opacity: 1; white-space: pre;" transform="translate(699.2354103617013,621.6467514348526)">value</text></g></g><g class="slice"><path class="surface" d="M571.0477613939025,503.646820125533L742.0955227878051,607.293640251066A400,400 0,0,0 751.0168078769409,591.7998972572269L575.5084039384705,495.89994862861346A200,200 0,0,1 571.0477613939025,503.646820125533Z" style="pointer-events: none; stroke-width: 1; fill: rgb(25, 211, 243); fill-opacity: 1; stroke: rgb(255, 255, 255); stroke-opacity: 1; opacity: 0.7;"/><g class="slicetext"><text data-notex="1" class="slicetext" text-anchor="middle" x="0" y="0" style="font-family: 'Arial Unicode MS'; font-size: 12px; fill: rgb(68, 68, 68); fill-opacity: 1; white-space: pre;" transform="translate(730.1346069595565,595.4650955924028)scale(0.9804237660318607)rotate(29.9333036905291)">length</text></g></g><g class="slice"><path class="surface" d="M575.5084039384705,495.89994862861346L751.0168078769409,591.7998972572269A400,400 0,0,0 758.7439479103241,576.9259162409924L579.371973955162,488.4629581204962A200,200 0,0,1 575.5084039384705,495.89994862861346Z" style="pointer-events: none; stroke-width: 1; fill: rgb(25, 211, 243); fill-opacity: 1; stroke: rgb(255, 255, 255); stroke-opacity: 1; opacity: 0.7;"/><g class="slicetext"><text data-notex="1" class="slicetext" text-anchor="middle" x="0" y="0" style="font-family: 'Arial Unicode MS'; font-size: 12px; fill: rgb(68, 68, 68); fill-opacity: 1; white-space: pre;" transform="translate(737.020780271585,579.9616262910278)scale(0.9111048711319455)rotate(27.452200978212602)">volume</text></g></g><g class="slice"><path class="surface" d="M579.371973955162,488.4629581204962L758.7439479103241,576.9259162409924A400,400 0,0,0 765.8411694357806,561.7412710036016L582.9205847178903,480.8706355018008A200,200 0,0,1 579.371973955162,488.4629581204962Z" style="pointer-events: none; stroke-width: 1; fill: rgb(25, 211, 243); fill-opacity: 1; stroke: rgb(255, 255, 255); stroke-opacity: 1; opacity: 0.7;"/><g class="slicetext"><text data-notex="1" class="slicetext" text-anchor="middle" x="0" y="0" style="font-family: 'Arial Unicode MS'; font-size: 12px; fill: rgb(68, 68, 68); fill-opacity: 1; white-space: pre;" transform="translate(749.982851178088,568.5247870586595)scale(0.9430609113057731)rotate(25.05113383726109)">area</text></g></g><g class="slice"><path class="surface" d="M582.9205847178903,480.8706355018006L765.8411694357807,561.7412710036012A400,400 0,0,0 778.0971368730037,530.5471374195431L589.0485684365019,465.27356870977155A200,200 0,0,1 582.9205847178903,480.8706355018006Z" style="pointer-events: none; stroke-width: 1; fill: rgb(255, 102, 146); fill-opacity: 1; stroke: rgb(255, 255, 255); stroke-opacity: 1; opacity: 0.7;"/><g class="slicetext"><text data-notex="1" class="slicetext" text-anchor="middle" x="0" y="0" style="font-family: 'Arial Unicode MS'; font-size: 12px; fill: rgb(68, 68, 68); fill-opacity: 1; white-space: pre;" transform="translate(757.326097127903,545.14104497224)">type</text></g></g><g class="slice"><path class="surface" d="M589.0485684365019,465.27356870977155L778.0971368730037,530.5471374195431A400,400 0,0,0 785.1013004527722,508.15261619389366L592.5506502263861,454.07630809694683A200,200 0,0,1 589.0485684365019,465.27356870977155Z" style="pointer-events: none; stroke-width: 1; fill: rgb(255, 102, 146); fill-opacity: 1; stroke: rgb(255, 255, 255); stroke-opacity: 1; opacity: 0.7;"/><g class="slicetext"><text data-notex="1" class="slicetext" text-anchor="middle" x="0" y="0" style="font-family: 'Arial Unicode MS'; font-size: 12px; fill: rgb(68, 68, 68); fill-opacity: 1; white-space: pre;" transform="translate(767.9005449550882,520.0423508348686)rotate(17.36771898621612)">box</text></g></g><g class="slice"><path class="surface" d="M592.5506502263861,454.07630809694683L785.1013004527722,508.15261619389366A400,400 0,0,0 789.5494700061403,490.83617350998014L594.7747350030702,445.4180867549901A200,200 0,0,1 592.5506502263861,454.07630809694683Z" style="pointer-events: none; stroke-width: 1; fill: rgb(182, 232, 128); fill-opacity: 1; stroke: rgb(255, 255, 255); stroke-opacity: 1; opacity: 0.7;"/><g class="slicetext"><text data-notex="1" class="slicetext" text-anchor="middle" x="0" y="0" style="font-family: 'Arial Unicode MS'; font-size: 12px; fill: rgb(68, 68, 68); fill-opacity: 1; white-space: pre;" transform="translate(773.399383108328,500.80670152801287)scale(0.9970115565170411)rotate(14.406402845709238)">point</text></g></g><g class="slice"><path class="surface" d="M594.7747350030702,445.4180867549901L789.5494700061403,490.83617350998014A400,400 0,0,0 793.0129795418568,474.43653613402523L596.5064897709284,437.2182680670126A200,200 0,0,1 594.7747350030702,445.4180867549901Z" style="pointer-events: none; stroke-width: 1; fill: rgb(255, 151, 255); fill-opacity: 1; stroke: rgb(255, 255, 255); stroke-opacity: 1; opacity: 0.7;"/><g class="slicetext"><text data-notex="1" class="slicetext" text-anchor="middle" x="0" y="0" style="font-family: 'Arial Unicode MS'; font-size: 12px; fill: rgb(68, 68, 68); fill-opacity: 1; white-space: pre;" transform="translate(779.7010766030163,484.783813996384)scale(0.9461033064641045)rotate(11.925300133392682)">tank</text></g></g><g class="slice"><path class="surface" d="M596.5064897709284,437.2182680670126L793.0129795418568,474.43653613402523A400,400 0,0,0 795.7863975760695,457.90619564224096L597.8931987880347,428.9530978211205A200,200 0,0,1 596.5064897709284,437.2182680670126Z" style="pointer-events: none; stroke-width: 1; fill: rgb(254, 203, 82); fill-opacity: 1; stroke: rgb(255, 255, 255); stroke-opacity: 1; opacity: 0.7;"/><g class="slicetext"><text data-notex="1" class="slicetext" text-anchor="middle" x="0" y="0" style="font-family: 'Arial Unicode MS'; font-size: 12px; fill: rgb(68, 68, 68); fill-opacity: 1; white-space: pre;" transform="translate(782.1809166519155,468.6617836304625)scale(0.9427084135976329)rotate(9.52423299244117)">hour</text></g></g><g class="slice"><path class="surface" d="M597.8931987880347,428.9530978211205L795.7863975760695,457.90619564224096A400,400 0,0,0 797.7479912225803,442.38555742705523L598.8739956112902,421.1927787135276A200,200 0,0,1 597.8931987880347,428.9530978211205Z" style="pointer-events: none; stroke-width: 1; fill: rgb(198, 202, 253); fill-opacity: 1; stroke: rgb(255, 255, 255); stroke-opacity: 1; opacity: 0.7;"/><g class="slicetext"><text data-notex="1" class="slicetext" text-anchor="middle" x="0" y="0" style="font-family: 'Arial Unicode MS'; font-size: 12px; fill: rgb(68, 68, 68); fill-opacity: 1; white-space: pre;" transform="translate(788.6878724268261,453.4260007609884)scale(0.8983772448013755)rotate(7.203201422854647)">fee</text></g></g><g class="slice"><path class="surface" d="M598.8739956112902,421.1927787135276L797.7479912225803,442.38555742705523A400,400 0,0,0 799.1011844201132,426.80008571745134L599.5505922100566,413.40004285872567A200,200 0,0,1 598.8739956112902,421.1927787135276Z" style="pointer-events: none; stroke-width: 1; fill: rgb(247, 167, 153); fill-opacity: 1; stroke: rgb(255, 255, 255); stroke-opacity: 1; opacity: 0.7;"/><g class="slicetext"><text data-notex="1" class="slicetext" text-anchor="middle" x="0" y="0" style="font-family: 'Arial Unicode MS'; font-size: 12px; fill: rgb(68, 68, 68); fill-opacity: 1; white-space: pre;" transform="translate(778.9952819223479,436.93195302617227)scale(0.84441515193442)rotate(4.962205424633282)">discount</text></g></g><g class="slice"><path class="surface" d="M599.5505922100566,413.40004285872567L799.1011844201132,426.80008571745134A400,400 0,0,0 799.8111304212083,412.29064649705583L599.9055652106042,406.1453232485279A200,200 0,0,1 599.5505922100566,413.40004285872567Z" style="pointer-events: none; stroke-width: 1; fill: rgb(51, 255, 201); fill-opacity: 1; stroke: rgb(255, 255, 255); stroke-opacity: 1; opacity: 0.7;"/><g class="slicetext"><text data-notex="1" class="slicetext" text-anchor="middle" x="0" y="0" style="font-family: 'Arial Unicode MS'; font-size: 12px; fill: rgb(68, 68, 68); fill-opacity: 1; white-space: pre;" transform="translate(787.1434668757113,422.816643867284)scale(0.8145490854591282)rotate(2.801244997776905)">batch</text></g></g><g class="slice"><path class="surface" d="M599.9055652106042,406.1453232485279L799.8111304212083,412.29064649705583A400,400 0,0,0 800,400.00000000000114L600,400.00000000000057A200,200 0,0,1 599.9055652106042,406.1453232485279Z" style="pointer-events: none; stroke-width: 1; fill: rgb(224, 198, 253); fill-opacity: 1; stroke: rgb(255, 255, 255); stroke-opacity: 1; opacity: 0.7;"/><g class="slicetext"><text data-notex="1" class="slicetext" text-anchor="middle" x="0" y="0" style="font-family: 'Arial Unicode MS'; font-size: 12px; fill: rgb(68, 68, 68); fill-opacity: 1; white-space: pre;" transform="translate(786.8471605017595,409.2037832879646)scale(0.6860511511717611)rotate(0.880391285015719)">garden</text></g></g></g></g><g class="glimages"/><defs id="topdefs-93f916"><g class="clips"/></defs><g class="layer-above"><g class="imagelayer"/><g class="shapelayer"/></g><g class="infolayer"><g class="g-gtitle"/></g></svg>